<svg width="114" height="70" viewBox="0 0 114 70" fill="none" xmlns="http://www.w3.org/2000/svg">
<path d="M56.8687 63.0026C65.5017 56.6172 71.0859 46.4508 71.0859 35C71.0859 23.5492 65.5017 13.3828 56.8687 6.99738C62.809 2.60359 70.1929 0 78.1943 0C97.8242 0 113.737 15.67 113.737 35C113.737 54.33 97.8242 70 78.1943 70C70.1929 70 62.809 67.3964 56.8687 63.0026Z" fill="black"/>
<path d="M56.8686 6.99738C48.2356 13.3828 42.6514 23.5492 42.6514 35C42.6514 46.4508 48.2356 56.6172 56.8686 63.0026C50.9283 67.3964 43.5444 70 35.5429 70C15.9131 70 0 54.33 0 35C0 15.67 15.9131 0 35.5429 0C43.5444 0 50.9283 2.60359 56.8686 6.99738Z" fill="#FFDD00"/>
</svg>
