<svg width="22" height="22" viewBox="0 0 22 22" fill="none" xmlns="http://www.w3.org/2000/svg">
<path d="M11 1.83334C5.94554 1.83334 1.83337 5.94551 1.83337 11C1.83337 16.0545 5.94554 20.1667 11 20.1667C16.0545 20.1667 20.1667 16.0545 20.1667 11C20.1667 5.94551 16.0545 1.83334 11 1.83334ZM11 18.3333C6.95662 18.3333 3.66671 15.0434 3.66671 11C3.66671 6.95659 6.95662 3.66668 11 3.66668C15.0435 3.66668 18.3334 6.95659 18.3334 11C18.3334 15.0434 15.0435 18.3333 11 18.3333Z" fill="black"/>
<path d="M11.9167 6.41666H10.0834V11.3795L13.102 14.3981L14.3981 13.1019L11.9167 10.6205V6.41666Z" fill="black"/>
</svg>
