<svg width="22" height="22" viewBox="0 0 22 22" fill="none" xmlns="http://www.w3.org/2000/svg">
<g clip-path="url(#clip0)">
<path d="M9.84526 21.5561C3.7244 12.5052 2.58826 11.5763 2.58826 8.25C2.58826 3.69364 6.20947 0 10.6765 0C15.1435 0 18.7647 3.69364 18.7647 8.25C18.7647 11.5763 17.6286 12.5052 11.5077 21.5561C11.1061 22.148 10.2469 22.1479 9.84526 21.5561ZM10.6765 11.6875C12.5378 11.6875 14.0466 10.1485 14.0466 8.25C14.0466 6.35151 12.5378 4.8125 10.6765 4.8125C8.81523 4.8125 7.30639 6.35151 7.30639 8.25C7.30639 10.1485 8.81523 11.6875 10.6765 11.6875Z" fill="black"/>
</g>
<defs>
<clipPath id="clip0">
<rect width="22" height="22" fill="white"/>
</clipPath>
</defs>
</svg>
